Motion_pl07
version=1
nRows=16
nColumns=43
inDegrees=yes
endheader
time	pelvis_tilt	pelvis_list	pelvis_rotation	pelvis_tx	pelvis_ty	pelvis_tz	hip_flexion_r	hip_adduction_r	hip_rotation_r	knee_angle_r	ankle_angle_r	subtalar_angle_r	mtp_angle_r	hip_flexion_l	hip_adduction_l	hip_rotation_l	knee_angle_l	ankle_angle_l	subtalar_angle_l	mtp_angle_l	lumbar_extension	lumbar_bending	lumbar_rotation	neck_flexion	neck_lateral_bending	neck_rotation	arm_flex_r	arm_add_r	arm_rot_r	elbow_flex_r	pro_sup_r	wrist_flex_r	wrist_dev_r	hand_finger_flex_r	arm_flex_l	arm_add_l	arm_rot_l	elbow_flex_l	pro_sup_l	wrist_flex_l	wrist_dev_l	hand_finger_flex_l
      2.39250000	     -3.61335869	    -22.42102481	     89.14275809	     -0.01131949	      1.59529734	      1.62765184	     96.09405686	    -10.07333404	     15.41692131	   -144.37382949	     27.53427047	     14.73990547	     18.13923784	     90.63118483	     -3.86048003	      4.93223742	   -143.01853367	     30.44077259	     11.24458380	     15.04079123	    -46.24106956	     -3.72188770	     -4.24626520	     38.40092124	      7.09907996	     -1.54548150	     93.79871254	    -18.88748587	     26.34359318	     71.58013426	     86.95401310	     -9.07847166	     -6.73236312	    -13.14017523	    102.34913517	    -17.42387772	     33.19558522	     63.44521847	     91.61544528	    -10.75632598	     -1.50303584	     -8.34358089
      2.39500000	     -3.58492694	    -22.69191474	     89.18584717	     -0.01138249	      1.59575922	      1.62560879	     96.01260100	    -10.04134858	     15.42910336	   -144.31325957	     27.42618664	     14.76787453	     18.13889525	     90.49810360	     -3.88041623	      4.93234505	   -142.89904754	     30.47006331	     11.25880655	     15.08620620	    -45.87419605	     -3.73501283	     -4.30057599	     38.37982131	      7.16003051	     -1.55735362	     94.75745597	    -18.45823455	     26.39603386	     71.32280604	     86.88687759	     -8.97057591	     -6.65980188	    -13.22406814	    103.26703935	    -17.07288916	     33.21081936	     63.34435729	     91.59479184	    -10.66636739	     -1.50127009	     -8.43726995
      2.39750000	     -3.55506085	    -22.89482829	     89.22992666	     -0.01143059	      1.59635342	      1.62350069	     95.84771420	    -10.00849016	     15.43105506	   -144.24630550	     27.29458123	     14.79046580	     18.13818933	     90.28430608	     -3.90044160	      4.93308954	   -142.78438865	     30.50046207	     11.29326845	     15.14805414	    -45.58625923	     -3.74518461	     -4.37710587	     38.32337293	      7.22815678	     -1.52284093	     95.73321243	    -18.00332491	     26.43804431	     71.02585121	     86.77990419	     -8.83084721	     -6.61412683	    -13.32432126	    104.21940877	    -16.76778713	     33.26377251	     63.22944916	     91.54270985	    -10.56173079	     -1.54972389	     -8.54759945
      2.40000000	     -3.50861185	    -22.76016559	     89.29585506	     -0.01142823	      1.59778980	      1.62106186	     95.22535018	    -10.02262901	     15.37993075	   -144.11902192	     27.16335935	     14.73638714	     18.16604945	     89.61776946	     -3.91900038	      4.95500773	   -142.59241029	     30.53126679	     11.43251925	     15.50319931	    -45.71593529	     -3.71344884	     -4.55267759	     38.25518962	      7.27852397	     -1.27565576	     96.81534749	    -17.40511046	     26.46253458	     70.54490037	     86.21158306	     -8.30411615	     -6.95612664	    -13.95663716	    105.32134962	    -16.69380428	     33.54194356	     63.09514121	     91.00398547	    -10.30503683	     -1.98373188	     -9.16894284
      2.40250000	     -3.47920092	    -23.10109601	     89.34148758	     -0.01147747	      1.59825458	      1.61882961	     95.18155916	     -9.99937914	     15.37644117	   -144.01949555	     27.06617625	     14.76758977	     18.16350937	     89.52351783	     -3.95080439	      4.95450761	   -142.42598030	     30.51920689	     11.43902989	     15.53878997	    -45.25834000	     -3.73436968	     -4.59141978	     38.21267487	      7.34691417	     -1.29980511	     97.64670642	    -17.05587978	     26.48076853	     70.40556471	     86.19400338	     -8.26822605	     -6.89636943	    -14.02832832	    106.09868809	    -16.30700820	     33.45490588	     63.03884888	     90.96488239	    -10.31359275	     -1.95853680	     -9.23725459
      2.40500000	     -3.44338568	    -23.38852638	     89.38653377	     -0.01151053	      1.59873221	      1.61658601	     95.09780057	     -9.97731268	     15.36831202	   -143.93924308	     26.92452660	     14.80104625	     18.15693968	     89.38911367	     -3.99386922	      4.96328584	   -142.28803359	     30.50502550	     11.46549403	     15.58439264	    -44.85828132	     -3.74923849	     -4.63368498	     38.16036001	      7.43215049	     -1.28036694	     98.51745766	    -16.70771859	     26.52982175	     70.21922818	     86.14029357	     -8.21960138	     -6.84058849	    -14.10488532	    106.92982795	    -15.94331552	     33.42274749	     62.94637782	     90.92077669	    -10.30927357	     -1.96058723	     -9.30402103
      2.40750000	     -3.35675630	    -23.43892879	     89.43416882	     -0.01151263	      1.59961713	      1.61416771	     94.75229296	     -9.94929443	     15.31010632	   -143.85970716	     26.59547168	     14.83680185	     18.13942066	     88.99721752	     -4.05005316	      5.04465622	   -142.17954921	     30.48357000	     11.59390309	     15.79389786	    -44.72663759	     -3.73548173	     -4.67242488	     37.97342147	      7.58984572	     -1.10384660	     99.54261351	    -16.43845668	     26.80559472	     69.92099305	     85.75913491	     -8.02516896	     -6.92256374	    -14.40352022	    107.97303888	    -15.75559941	     33.72453945	     62.76967107	     90.72534689	    -10.22843741	     -2.17756187	     -9.50468072
      2.41000000	     -3.32837284	    -23.73996060	     89.47187404	     -0.01156136	      1.60018597	      1.61173308	     94.64560693	     -9.95719478	     15.26670285	   -143.73503032	     26.53159567	     14.86089352	     18.13672961	     88.84308499	     -4.08199736	      5.02651622	   -142.02113639	     30.47302819	     11.62792299	     15.84247693	    -44.30894827	     -3.75873061	     -4.72397226	     38.01923159	      7.63612906	     -1.10245376	    100.30815040	    -16.06487431	     26.75211815	     69.77378481	     85.64876822	     -8.03906265	     -6.91947184	    -14.49068995	    108.69331168	    -15.36633552	     33.56502108	     62.70578403	     90.66394871	    -10.30461112	     -2.21532653	     -9.58111732
      2.41250000	     -3.21568824	    -23.77554308	     89.53761759	     -0.01161666	      1.60112220	      1.60919539	     94.27173289	     -9.95409620	     15.19256361	   -143.64357367	     26.18450099	     14.92391232	     18.11895284	     88.41804075	     -4.13459376	      5.13350687	   -141.90833235	     30.47787576	     11.77749570	     16.11527683	    -44.18833020	     -3.71046867	     -4.73137398	     37.89424142	      7.76495316	     -0.95256305	    101.34945354	    -15.85327831	     27.10091135	     69.44243749	     84.96376666	     -7.88465017	     -7.08601686	    -14.83723650	    109.68752599	    -15.15570737	     33.82307545	     62.50195980	     90.50798044	    -10.33664531	     -2.49893873	     -9.77853174
      2.41500000	     -3.18637797	    -24.08583445	     89.57437142	     -0.01168082	      1.60170226	      1.60665206	     94.16397454	     -9.96294568	     15.13867925	   -143.50626016	     26.12294067	     14.95208122	     18.11760616	     88.25627114	     -4.16031965	      5.10676283	   -141.75543361	     30.47269665	     11.80375916	     16.16683552	    -43.74659244	     -3.72979836	     -4.77487111	     37.94323138	      7.80274988	     -0.96289608	    102.07608299	    -15.49076350	     27.02789937	     69.27394261	     84.81950233	     -7.92009582	     -7.07631312	    -14.92522248	    110.37389388	    -14.77407373	     33.64082145	     62.42795695	     90.46653208	    -10.42578435	     -2.52508138	     -9.84145504
      2.41750000	     -3.12770715	    -24.33818333	     89.63380039	     -0.01174882	      1.60224749	      1.60408150	     94.03603645	     -9.95963598	     15.12534364	   -143.42411175	     25.93862919	     14.99939996	     18.11047494	     88.04384262	     -4.21491017	      5.12251399	   -141.62285180	     30.48903467	     11.83464317	     16.23787852	    -43.35478403	     -3.71780151	     -4.79830715	     37.93286497	      7.87678319	     -0.94288417	    102.89720389	    -15.17794897	     27.07218856	     69.00695272	     84.59248628	     -7.90627035	     -7.04558052	    -15.01621734	    111.12987755	    -14.43116622	     33.56935063	     62.29712191	     90.46341007	    -10.48959513	     -2.56449696	     -9.89599445
      2.42000000	     -2.97351193	    -24.30222618	     89.73119583	     -0.01184390	      1.60335807	      1.60126992	     93.54241227	     -9.94831064	     15.00159221	   -143.30156244	     25.47747509	     15.07889896	     18.11095692	     87.48981435	     -4.25569549	      5.23576627	   -141.49656083	     30.55968731	     11.94784162	     16.54731955	    -43.29451384	     -3.61311025	     -4.78355110	     37.74752881	      7.93433061	     -0.76926356	    103.91163025	    -14.95747076	     27.43586331	     68.62392843	     83.49201995	     -7.73904408	     -7.24544893	    -15.36485045	    112.06190584	    -14.25377977	     33.80563496	     62.07725440	     90.52647552	    -10.58554607	     -2.90813479	     -9.99693257
      2.42250000	     -2.93339823	    -24.61676650	     89.78112290	     -0.01195494	      1.60390893	      1.59857692	     93.43472579	     -9.94562587	     14.96620980	   -143.17355359	     25.43097771	     15.08514148	     18.11585174	     87.31503803	     -4.27800658	      5.19861042	   -141.36321575	     30.56667103	     11.95389648	     16.60109251	    -42.83278657	     -3.61309411	     -4.80937653	     37.81521932	      7.97103657	     -0.79100036	    104.60403245	    -14.59760448	     27.34613321	     68.39906143	     83.31565625	     -7.78435177	     -7.21695619	    -15.46085629	    112.71143767	    -13.86701412	     33.59809805	     61.98306351	     90.50189010	    -10.68249868	     -2.92124090	    -10.03947253
      2.42500000	     -2.85524700	    -24.85406031	     89.86050232	     -0.01204235	      1.60444809	      1.59582838	     93.26999235	     -9.91670728	     14.94381338	   -143.09979668	     25.20081594	     15.10479529	     18.11502310	     87.06143169	     -4.32272372	      5.18823687	   -141.24493581	     30.62404470	     11.93191317	     16.68170075	    -42.42925573	     -3.57445966	     -4.81717441	     37.77717372	      8.01813096	     -0.77085339	    105.37813030	    -14.27940140	     27.36427140	     68.08844005	     83.02518975	     -7.75563265	     -7.16102910	    -15.57417851	    113.40501276	    -13.53492854	     33.50786571	     61.83132553	     90.52040734	    -10.75329836	     -2.96390509	    -10.06794915
      2.42750000	     -2.70114120	    -24.87548112	     89.96203564	     -0.01221267	      1.60551302	      1.59284154	     92.84037519	     -9.90098803	     14.81275188	   -142.94725656	     24.71127755	     15.07273351	     18.13523525	     86.51632859	     -4.34739264	      5.24382207	   -141.12118368	     30.72471067	     11.85623229	     16.91342841	    -42.27824511	     -3.44265954	     -4.78596241	     37.57553957	      7.99396106	     -0.61424370	    106.24950105	    -13.98477878	     27.56053189	     67.73773886	     82.12299336	     -7.51890668	     -7.21822446	    -15.90969894	    114.16918341	    -13.33508698	     33.57976926	     61.66297134	     90.59885385	    -10.85027566	     -3.27465904	    -10.07791733
      2.43000000	     -2.66646204	    -25.18401724	     90.01363103	     -0.01241101	      1.60614182	      1.58996017	     92.70557823	     -9.89644028	     14.75046722	   -142.79800147	     24.62439268	     15.08069534	     18.14099209	     86.30984869	     -4.38115179	      5.18608543	   -140.96626349	     30.73059018	     11.84979750	     16.95124272	    -41.80839890	     -3.42368511	     -4.82172482	     37.62153899	      8.02666888	     -0.62617613	    106.88790090	    -13.64054945	     27.46246461	     67.51943966	     81.98693654	     -7.54566034	     -7.17697113	    -16.00917843	    114.76632881	    -12.97416640	     33.38350376	     61.56770951	     90.57145466	    -10.94392702	     -3.29471706	    -10.11119302
